<svg xmlns="http://www.w3.org/2000/svg" xmlns:xlink="http://www.w3.org/1999/xlink" width="280px" height="56px" viewBox="0 0 280 56" version="1.1">
                <!-- Generator: Sketch 52.2 (67145) - http://www.bohemiancoding.com/sketch -->
                <title>Group 33</title>
                <desc>Created with Sketch.</desc>
                <g id="Page-1" stroke="none" stroke-width="1" fill="none" fill-rule="evenodd">
                    <g id="Group-33" fill="#1765F6">
                        <path d="M266.282478,29.438603 C264.901941,29.6633385 263.601164,28.7229638 263.377111,27.3382174 C263.153059,25.953471 264.090575,24.6487282 265.471113,24.4239927 C266.85165,24.1992573 268.152427,25.1396319 268.37648,26.5243783 C268.600532,27.9091247 267.663016,29.2138676 266.282478,29.438603 Z M126.737535,35.7432873 C127.526745,34.3014287 127.954258,32.6954489 127.985072,31.0592285 C127.985072,28.9476734 127.370279,27.2618351 126.122742,25.9667753 C124.875205,24.671422 123.230072,24.0328469 121.187043,24.0328469 C118.800567,24.0328469 116.775489,24.884574 115.130355,26.6056441 C113.484923,28.3264206 112.653232,30.5266422 112.653232,33.2415407 C112.653232,35.3351864 113.286274,37.0031153 114.533811,38.2805592 C115.781049,39.558003 117.408232,40.1968718 119.379161,40.1968718 C120.880693,40.223002 122.361882,39.8489584 123.664167,39.1143768 C124.875205,38.4044574 125.905844,37.2691149 126.737535,35.7432873 Z M129.558106,22.4359686 L129.810904,22.8437759 L135,22.8437759 L132.270078,45.3066472 L125.670996,45.3066472 L126.068592,42.4502346 C124.604157,43.7808197 123.266271,44.7035974 122.000784,45.2179807 C120.657812,45.7537966 119.219106,46.0189154 117.769928,45.9989508 C114.172115,45.9989508 111.297395,44.7035974 109.181967,42.1128908 C107.060855,39.5107338 106,36.4884384 106,33.0462982 C106.005086,30.4130199 106.709032,27.82613 108.043029,25.5410586 C109.326466,23.2395457 111.219013,21.3211779 113.521122,19.9873633 C115.68352,18.6931843 118.166328,18.005872 120.698798,18 C122.38043,18 124.640357,18.3728692 126.050642,19.1359297 C127.48875,19.9221846 128.696797,21.0587015 129.558106,22.4359686 Z M147.89108,24.4191243 C147.502927,24.6720514 147.266954,25.0881193 147.258021,25.5364633 C147.283897,25.9721903 147.468116,26.3859109 147.779254,26.7066177 C148.095938,27.0965714 149.082648,27.859167 150.739691,28.9762125 C153.364653,30.7672412 155.095938,32.3100376 155.933548,33.586703 C156.760067,34.8331463 157.193196,36.2797013 157.180874,37.7538376 C157.180874,39.7220913 156.324473,41.6017325 154.630463,43.3572575 C152.936144,45.1124891 150.460283,45.9994943 147.221054,45.9994943 C145.45619,46.0156323 143.710734,45.6453377 142.119923,44.917659 C140.593188,44.2081722 138.880386,42.8962965 137,40.9808582 L141.24473,36.2820486 C143.162391,38.6933648 145.266118,39.8996097 147.537429,39.8996097 C148.449589,39.8996097 149.175681,39.6865876 149.715398,39.2790288 C150.214452,38.9383695 150.512036,38.3914368 150.516041,37.8069464 C150.516041,37.3635905 150.311183,36.9026295 149.901774,36.4061648 C149.492057,35.9097001 148.356555,35.058492 146.531928,33.8170368 C144.409717,32.3810449 142.939049,31.1574883 142.138406,30.1290552 C141.002905,28.6924765 140.444396,27.1675787 140.444396,25.5716736 C140.444396,23.337289 141.338072,21.51105 143.106632,20.109975 C144.875193,18.7094868 146.960437,18 149.38054,18 C151.062536,18.0011737 152.718655,18.3969957 154.202262,19.1528427 C155.728381,19.929229 157.032082,21.0495022 158,22.4153669 L154.723496,27.3982059 C153.867095,26.210153 152.992211,25.3413398 152.06126,24.7738677 C151.130617,24.2061022 150.255424,23.9226596 149.45509,23.9226596 C148.889495,23.9126834 148.337455,24.0881478 147.89108,24.4191243 Z M170.31316,35.0735625 L179.163951,19 L186,19 L165.698428,56 L159,56 L166.335532,42.3798901 L159.051857,19 L165.285279,19 L170.31316,35.0735625 Z M102.044932,22.8679817 C103.546067,23.1206391 104.640129,24.4552331 104.617977,26.0069775 C104.613374,27.7679491 103.214943,29.1943919 101.488551,29.1990871 L88.7798259,29.1814803 L87.4757546,38.7220085 L99.8196968,38.7044017 C101.523936,38.6847408 102.921217,40.0783176 102.940204,41.8166938 C102.959479,43.5553635 101.593556,44.9803391 99.8890286,45 L80,45 L84.815829,9 L103.870574,9 C105.598979,9 107,10.4290838 107,12.1921096 C107,13.9551353 105.598979,15.3842191 103.870574,15.3842191 L90.6748,15.4021193 L89.6664678,22.8679817 L102.044932,22.8679817 Z M213.870608,9 C215.598994,9 217,10.4290838 217,12.1921096 C217,13.9551353 215.598994,15.3842191 213.870608,15.3842191 L200.674974,15.4018259 L199.666652,22.8679817 L212.044985,22.8679817 C213.545816,23.1253342 214.643031,24.4543528 214.635263,26.0069775 C214.63066,27.7679491 213.232244,29.1940985 211.505871,29.1990871 L198.797281,29.1811868 L197.493224,38.7220085 L209.837034,38.7044017 C211.541256,38.6847408 212.938522,40.0783176 212.957796,41.8166938 C212.977071,43.5553635 211.611162,44.9803391 209.906653,45 L190,45 L194.816065,9 L213.870608,9 Z M240.237561,33.6679817 C241.534293,31.6995435 242.164971,29.2701011 242.200346,26.3438539 C242.200346,23.9675253 241.744519,21.9814803 240.833443,20.3678187 C239.941504,18.7729377 238.607367,17.4779589 236.995441,16.6433975 C235.348429,15.7745028 233.140331,15.3313988 230.406813,15.3313988 L228.724425,15.3313988 L225.587854,38.7044017 L227.777973,38.7044017 C231.160147,38.7044017 233.613557,38.4206391 235.120805,37.8534072 C237.223645,37.0464297 239.0168,35.5800783 240.237561,33.6679817 Z M248.9992,26.2376263 C249.030517,29.749299 248.141768,33.2063906 246.423424,36.257059 C244.723638,39.2895337 242.550626,41.506521 239.939765,42.907434 C237.328613,44.302478 233.701127,45 229.057307,45 L218,45 L222.854046,9 L228.496801,9 C233.782898,9.00616237 237.714269,9.63853929 240.290045,10.8977176 C242.86582,12.1745028 244.951552,14.1605478 246.580876,16.8740463 C248.193092,19.5696446 248.9992,22.6907401 248.9992,26.2376263 Z M275.416231,25.8510513 L280,45 L273.658573,45 L271.814515,37.3402437 L257.994202,37.3402437 L254.030632,45 L247,45 L265.817833,9 L271.332328,9 L273.951421,19.8481038 L269.126416,22.5910788 C268.182858,21.9057772 267.057375,21.5388092 265.903948,21.540283 C263.034494,21.5411672 260.620709,23.7636078 260.289366,26.7096679 C259.928937,29.9157005 262.150818,32.8172529 265.252383,33.1898212 C268.354233,33.5626842 271.160954,31.2659658 271.521667,28.0596384 L275.416231,25.8510513 Z" id="Combined-Shape"/>
                        <path d="M22.6442971,35.8342228 C25.4681321,35.8342228 27.7736683,38.1460263 27.7736683,40.977757 C27.7736683,43.8275893 25.4860045,46.1214704 22.6442971,46.1214704 C19.8025897,46.1214704 17.514926,43.8275893 17.514926,40.977757 C17.514926,38.1460263 19.8025897,35.8342228 22.6442971,35.8342228 M65.520121,18.1626101 C63.7865007,16.4241425 61.6775607,15.0980681 59.3541521,14.3274072 C54.7788245,2.71354759 41.6783748,-3.00350167 30.0970768,1.58443977 C28.2919671,2.30133362 26.5940916,3.23347486 25.0391952,4.38050502 C23.2877026,5.67073473 21.7149337,7.21223574 20.3923781,8.95070334 C19.6596108,8.8610916 18.9089711,8.80714534 18.1583314,8.80714534 C8.13192991,8.80714534 -1.53477231e-12,16.9618129 -1.53477231e-12,27.0164284 C-1.53477231e-12,34.8664161 4.98639218,41.6769077 12.1174692,44.1860362 C13.4936419,48.7202106 17.6757773,52 22.6442971,52 C28.7030317,52 33.6358068,47.0536116 33.6358068,40.977757 C33.6358068,40.4940329 33.600062,40.0278727 33.5464449,39.579814 L49.0417927,31.7658502 L48.916686,31.5147581 L50.3822207,30.7801212 L47.3975343,24.8476453 L45.9319997,25.5826407 L45.8068931,25.3315487 L30.3294177,33.1100262 C28.3455842,31.1563112 25.6289835,29.955514 22.6442971,29.955514 C18.2119485,29.955514 14.405133,32.5900989 12.6536404,36.3718932 C8.59661161,33.9702988 6.43405443,29.0774983 7.68512057,24.2743094 C9.18639994,18.4674692 15.1200279,14.9903548 20.9106769,16.4960111 C21.9651469,16.7648463 22.9838722,17.212905 23.9132356,17.7864201 C26.5583469,9.77513127 35.1907033,5.43774423 43.1617818,8.09025149 C48.7915794,9.97209785 52.8307358,14.9546894 53.509886,20.8690636 C53.7779716,20.8509621 54.0639296,20.833219 54.3320152,20.833219 C59.014577,20.833219 62.8213926,24.6506787 62.8213926,29.3463335 C62.8213926,33.7550514 59.4613864,37.4291324 55.0647825,37.8236033 L48.8273242,37.8236033 L48.8273242,45.1717653 L55.3864852,45.1717653 L55.7081879,45.1357414 C64.3941614,44.4011044 70.8460882,36.7482625 70.1133209,28.0199006 C69.7916182,24.3099749 68.1652322,20.8151174 65.520121,18.1626101" id="Fill-17"/>
                    </g>
                </g>
            </svg>