<?xml version="1.0" encoding="utf-8"?>
<!DOCTYPE svg PUBLIC "-//W3C//DTD SVG 1.1//EN" "http://www.w3.org/Graphics/SVG/1.1/DTD/svg11.dtd">
<svg version="1.1" xmlns="http://www.w3.org/2000/svg" width="500px" height="500px" viewBox="0 0 500 500" preserveAspectRatio="xMidYMid meet">
 <g fill="#efb35b">
  <path d="M242.1 377.5 c-1.2 -2.5 -2.1 -4.7 -2.1 -5 0 -0.5 -2.9 -6.7 -13.6 -29.4 -3 -6.2 -5.4 -11.6 -5.4 -11.8 0 -0.3 -2.7 -6.1 -6 -13 l-6.1 -12.6 0.1 -93 c0 -72.8 0.3 -93.3 1.3 -93.9 0.6 -0.4 14.8 -0.8 31.5 -0.8 l30.2 0 0 72.5 c0 39.9 0.4 72.5 0.8 72.5 0.4 0 1.3 -0.5 2 -1.2 0.9 -0.9 1.2 12.3 1.2 59.5 l0 60.7 -15.9 0 -15.9 0 -2.1 -4.5z"/>
  <path d="M177.5 359.9 c-28.5 -4.8 -53.2 -25.9 -62.5 -53.4 -4.9 -14.2 -5 -17.3 -5 -105.6 l0 -82.9 31.5 0 31.5 0 0.1 10.8 c0.1 5.9 0.2 43.1 0.3 82.7 0.1 69.4 0.2 72.2 2.1 77.4 2.3 6.1 7.1 11.5 12.4 13.7 2 0.9 7 1.9 11.1 2.2 l7.5 0.7 0 27.5 0 27.5 -12 0.1 c-6.6 0.1 -14.2 -0.2 -17 -0.7z"/>
 </g>
 <g fill="#ed7e4d">
  <path d="M273 322.8 c0 -47.7 0.3 -59.4 1.3 -60.7 0.8 -0.9 3.4 -7 6 -13.6 2.5 -6.6 6.1 -15.6 8 -20 1.9 -4.4 6 -14.1 9.1 -21.5 9 -21.1 16.6 -38.8 20.2 -47 5.4 -12.2 11.3 -26 14.6 -34.3 l3.1 -7.7 30.4 0 30.3 0 0 2.3 c0 1.3 -2 6.8 -4.4 12.3 -9.8 22.2 -22.8 51.8 -29.1 66.4 -3.7 8.5 -8.1 18.4 -9.7 22 -1.7 3.6 -4.5 10.1 -6.3 14.5 -1.8 4.4 -7 16.1 -11.5 26 -4.5 9.9 -8.7 19.6 -9.5 21.5 -0.7 1.9 -5.2 12.3 -10 22.9 -4.8 10.7 -9.5 21.5 -10.5 24 -1 2.6 -5.8 13.6 -10.8 24.6 -4.9 11 -9.5 21.7 -10.2 23.8 -1.1 3.6 -1.3 3.7 -6.1 3.7 l-4.9 0 0 -59.2z"/>
 </g>
 <g fill="#7f348b">
  <path d="M279 381.2 c0 -1.6 6.1 -16.3 13.4 -32.5 4.3 -9.3 8.5 -19 9.6 -21.6 1 -2.6 5.7 -13.5 10.5 -24.2 4.8 -10.6 9.3 -21 10 -22.9 0.8 -1.9 5 -11.6 9.5 -21.5 4.5 -9.9 9.7 -21.6 11.5 -26 1.8 -4.4 4.6 -10.9 6.3 -14.5 1.6 -3.6 6 -13.5 9.7 -22 3.7 -8.5 10.9 -24.9 15.9 -36.5 5.1 -11.6 11.3 -25.6 13.7 -31.2 l4.4 -10.3 7.8 0 c4.3 0 7.7 0.4 7.7 1 0 0.5 -10.1 24.5 -22.4 53.2 -26.1 61 -41 96.1 -44.1 103.8 -1.3 3 -5.5 12.9 -9.5 22 -10.3 23.6 -31.4 72.9 -33 77 -2.5 6.5 -3.4 7 -12.7 7 -4.5 0 -8.3 -0.3 -8.3 -0.8z"/>
 </g>
</svg>