<?xml version="1.0" encoding="utf-8"?>
<!DOCTYPE svg PUBLIC "-//W3C//DTD SVG 1.0//EN" "http://www.w3.org/TR/2001/REC-SVG-20010904/DTD/svg10.dtd">
<svg version="1.0" xmlns="http://www.w3.org/2000/svg" width="520px" height="479px" viewBox="0 0 520 479" preserveAspectRatio="xMidYMid meet">
 <g fill="#ffffff">
  <path d="M0 239.5 l0 -239.5 260 0 260 0 0 239.5 0 239.5 -260 0 -260 0 0 -239.5z m315.7 210.9 c28.5 -10.8 71.6 -27.2 95.8 -36.4 l44 -16.7 1.3 -9.4 c0.6 -5.2 1.4 -11.2 1.7 -13.4 0.5 -4 0.7 -4.2 9.8 -8.7 l9.2 -4.7 -14.1 0 -14.1 -0.1 -0.6 4.8 c-0.4 2.6 -1.2 9.5 -1.8 15.3 l-1.2 10.6 -60.6 22.8 c-33.3 12.5 -74.2 27.9 -90.8 34.1 -18.7 7.1 -31.7 11.4 -34 11.4 -2.3 0 -20.1 -6.2 -49.2 -17.1 -25.1 -9.5 -65.8 -24.8 -90.6 -34.1 -24.7 -9.3 -45 -17 -45.1 -17.1 -0.1 -0.1 -1 -7.1 -2 -15.5 l-1.8 -15.2 -14 0.1 -14.1 0 9 4.6 c5 2.5 9.1 4.6 9.2 4.7 0.1 0.1 0.9 6 1.8 13.1 0.9 7.2 1.9 13.3 2.3 13.6 0.4 0.4 16.9 6.8 36.7 14.3 19.8 7.4 63 23.9 96 36.5 39.4 15.1 60.9 22.8 62.7 22.6 1.4 -0.2 25.9 -9.3 54.5 -20.1z m5.7 -29 c33.1 -12.4 68.7 -25.8 79.1 -29.8 13.5 -5 18.2 -7.2 16.3 -7.4 -6.3 -0.7 -9.3 -11.8 -4.7 -17.6 1.8 -2.3 2.7 -2.6 8.3 -2.6 8.6 0 10.6 1.9 10.7 10.3 0.1 7.7 1.3 4.5 2.4 -6.2 l0.7 -7.1 -173.7 0 -173.6 0 0.7 8.3 c0.7 9.2 1.4 11.3 1.4 4.5 0 -3.1 0.7 -5.4 2.1 -7.2 1.8 -2.3 2.7 -2.6 8.4 -2.6 8.1 0 10.5 2 10.5 8.9 0 6.8 -0.9 8.8 -4.3 10.5 l-3.2 1.5 3 1.1 c1.7 0.6 21.5 8.1 44 16.6 22.6 8.4 56.3 21.2 75 28.3 18.7 7.1 34.6 12.9 35.4 13 0.8 0.1 28.4 -10.1 61.5 -22.5z m-264.9 -103.4 c8.6 -8.6 14.7 -14 16 -14 1.4 0 -0.2 -2.2 -6.5 -8.5 -4.8 -4.8 -8.7 -8 -8.9 -7.3 -0.2 0.7 -9.8 10.9 -21.5 22.6 l-21.1 21.2 14 0 14 0 14 -14z m56.7 -6.7 c-20.7 -20.3 -21.3 -20.9 -21.2 -24.8 0 -3.8 0.7 -4.7 20.7 -24.7 l20.8 -20.8 -13.9 0 -13.9 0 -14.2 14 c-18.6 18.5 -16.5 18.5 -35 0 l-14 -14 -5.5 0 -5.5 0 33.2 33.3 c18.3 18.2 38.5 38.7 45 45.4 l11.8 12.3 6.5 0 6.5 0 -21.3 -20.7z m116.8 -24.8 l0 -45.5 -11 0 -11 0 0 45.5 0 45.5 11 0 11 0 0 -45.5z m128.3 42.7 c11.2 -4.6 20.8 -17 24.2 -31.4 5.1 -21.7 -4.9 -45.2 -22.8 -53.4 l-6.2 -2.9 -44.2 -0.3 -44.3 -0.3 0 45.6 0 45.6 43.8 -0.3 c43.1 -0.3 43.8 -0.3 49.5 -2.6z m151.7 -4.7 l0 -7.5 -39 0 -39 0 0 -12 0 -12 23 0 23 0 0 -7.5 0 -7.5 -23 0 -23 0 0 -12 0 -12 39 0 39 0 0 -6.5 0 -6.5 -48.5 0 -48.5 0 0 45.5 0 45.5 48.5 0 48.5 0 0 -7.5z m-455 -111.9 c0 -1 -11 -98.5 -12 -106 -0.5 -4.4 -1 -10.3 -1 -13.2 l0 -5.3 10.8 -3.5 c5.9 -1.9 46.7 -15 90.7 -29.1 128.6 -41.3 116.1 -37.8 124.6 -35.1 2.4 0.8 15.7 5.1 29.4 9.5 54.5 17.4 133.3 42.7 156.8 50.2 l24.7 8 0 3.9 c0 2.1 -2.9 29.8 -6.5 61.5 -3.6 31.7 -6.5 58.1 -6.5 58.6 0 0.5 6.5 0.9 14.8 0.8 l14.7 0 -8.2 -4.2 -8.3 -4.1 0 -5.6 c0 -3 0.4 -9.1 0.9 -13.5 3.3 -27.7 8.2 -70.9 10.4 -90.1 l1.2 -11.1 -12 -4 c-41.8 -14.1 -218.4 -72.3 -219.2 -72.3 -0.5 0 -36.9 11.9 -80.8 26.5 -44 14.6 -95.8 31.7 -115.2 38.1 l-35.2 11.6 0.4 2.6 c0.3 1.5 1.7 12.8 3 25.2 1.4 12.4 4.1 36.1 6 52.8 1.9 16.6 3.5 32.5 3.5 35.2 l0 5 -7.7 3.9 -7.8 4 14.3 0.1 c7.8 0 14.2 -0.2 14.2 -0.4z m396 -0.1 c0 -0.2 2.7 -24.6 6 -54.2 3.3 -29.6 6.1 -54.9 6.3 -56.2 0.1 -1.8 -0.4 -2.6 -2.3 -3.2 -1.4 -0.4 -15.3 -4.9 -31 -9.9 -15.7 -5.1 -33.2 -10.7 -39 -12.5 -5.8 -1.9 -23.1 -7.4 -38.5 -12.4 -61.5 -19.7 -91.3 -29.1 -92.3 -29.1 -1.1 0 -27 8.2 -69.7 22 -9.9 3.2 -43.6 14 -75 24 -31.4 10 -57.3 18.5 -57.6 18.9 -0.3 0.3 2.2 25.6 5.7 56.1 3.5 30.5 6.3 55.8 6.3 56.3 0.1 0.7 381.1 1 381.1 0.2z"/>
  <path d="M255.3 439 c-3.8 -1.6 -5.6 -5.4 -5.1 -11.2 0.7 -6.9 3 -8.8 10.7 -8.8 7.6 0 10.1 2.4 10.1 9.7 0 2.8 -0.3 5.9 -0.6 6.8 -1.4 3.7 -9.8 5.6 -15.1 3.5z"/>
  <path d="M283.2 286.3 l0.3 -31.8 28.9 -0.3 c31.3 -0.3 37.9 0.4 43.8 4.3 13.9 9.2 15.7 40.4 3.1 52.7 -6.9 6.7 -7.5 6.8 -43.8 6.8 l-32.5 0 0.2 -31.7z"/>
  <path d="M80.2 153.3 l0.3 -45.8 16 0 16 0 7 28.3 7 28.3 7 -28.3 7 -28.3 15.6 -0.3 c12 -0.2 15.8 0 16.1 1 0.2 0.7 0.2 21.5 0 46.1 l-0.4 44.8 -12.1 -0.3 -12.2 -0.3 0.2 -14.5 0.3 -14.5 -3 12.5 c-1.6 6.9 -3.2 13.5 -3.5 14.8 -0.5 2.2 -0.8 2.2 -15 2.2 l-14.4 0 -1 -3.7 c-0.5 -2.1 -2.1 -8.5 -3.4 -14.3 l-2.5 -10.5 -0.1 14.3 -0.1 14.2 -12.5 0 -12.5 0 0.2 -45.7z"/>
  <path d="M179 153 l0 -46 23.3 0 c12.7 0 25 0.5 27.2 1 2.5 0.6 5.2 2.2 7.3 4.4 l3.2 3.6 0 16.6 c0 18.8 -0.8 22.9 -5.6 27.8 -5.1 5.2 -11.4 7.7 -21.5 8.3 l-8.9 0.6 0 14.8 0 14.9 -12.5 0 -12.5 0 0 -46z m30.9 -7 c4.5 -1.3 5.1 -2.3 5.1 -9.7 l0 -6.3 -5.5 0 -5.5 0 0 8.5 c0 9.2 0 9.2 5.9 7.5z"/>
  <path d="M244 153 l0 -46.1 12.3 0.3 12.2 0.3 0.3 34.8 0.2 34.7 12.5 0 12.5 0 0 11 0 11 -25 0 -25 0 0 -46z"/>
  <path d="M297 196.3 c0 -1.5 4.2 -22.1 9.3 -45.8 l9.2 -43 15.5 0 15.4 0 1.3 6 c0.6 3.3 4.6 22 8.7 41.5 4.2 19.5 7.6 37.3 7.6 39.7 l0 4.3 -12.4 0 -12.4 0 -0.7 -3.2 c-0.3 -1.8 -1.1 -5.7 -1.7 -8.5 l-1.1 -5.3 -4.8 0 -4.7 0 -1.9 8.3 -1.9 8.2 -12.7 0.3 -12.7 0.3 0 -2.8z"/>
  <path d="M366 153 l0 -46 22.8 0 c23.5 0.1 28 0.7 32.3 4.6 1.7 1.5 1.9 1.5 1.9 0.1 0 -4.7 13.3 -6.6 18.4 -2.6 2.3 1.8 2.6 2.7 2.6 8.8 0 5.5 -0.4 7.1 -2 8.6 -2.5 2.2 -11.8 3.2 -14.9 1.6 -2.1 -1.2 -2.1 -1.1 -2.1 7.6 -0.1 4.8 -0.7 10.5 -1.5 12.6 -1.2 3.6 -1.2 4.1 1.1 7.4 2.2 3.3 2.4 4.6 2.4 14.7 0 13 -1.5 17.4 -7.6 22.4 -6.4 5.3 -11.3 6.2 -33.6 6.2 l-19.8 0 0 -46z m33.8 22.4 c2.2 -1.5 3 -5.7 1.4 -8 -1.1 -1.8 -4.8 -3.4 -7.6 -3.4 -2.5 0 -2.6 0.2 -2.6 6.5 l0 6.5 3.3 0 c1.8 0 4.3 -0.7 5.5 -1.6z m-1.4 -35.6 c0.9 -1.2 1.6 -3.9 1.6 -6 l0 -3.8 -4.5 0 -4.5 0 0 6 c0 6 0 6 2.9 6 2 0 3.5 -0.8 4.5 -2.2z"/>
  <path d="M252.1 57.4 c-1.5 -1.9 -2.1 -4.1 -2.1 -7.4 0 -3.3 0.6 -5.5 2.1 -7.4 1.8 -2.3 2.7 -2.6 8.5 -2.6 8.4 0 10.4 1.8 10.4 9.4 0 3.9 -0.6 6 -2.1 8 -1.8 2.3 -2.7 2.6 -8.4 2.6 -5.7 0 -6.6 -0.3 -8.4 -2.6z"/>
 </g>
 <g fill="#263a42">
  <path d="M197 451.4 c-33.8 -12.9 -77.7 -29.6 -97.5 -37 -19.8 -7.5 -36.3 -13.9 -36.7 -14.3 -0.4 -0.3 -1.4 -6.4 -2.3 -13.6 -0.9 -7.1 -1.7 -13 -1.8 -13.1 -0.1 -0.1 -6.7 -3.4 -14.6 -7.3 -7.9 -3.8 -14.6 -7.2 -14.9 -7.5 -0.3 -0.4 9.8 -0.6 22.5 -0.6 l22.9 0 1.8 15.2 c1 8.4 1.9 15.4 2 15.5 0.1 0.1 20.4 7.8 45.1 17.1 24.8 9.3 65.6 24.7 90.9 34.2 l45.8 17.2 14.7 -5.4 c8 -3 49.1 -18.4 91.2 -34.3 l76.6 -28.8 1.7 -15.1 c1 -8.3 1.9 -15.2 2 -15.4 0.2 -0.1 10.6 -0.1 23.2 0 l22.9 0.3 -15.2 7.4 -15.2 7.4 -0.6 4.1 c-0.2 2.2 -1.1 8.3 -1.7 13.5 l-1.3 9.4 -36 13.7 c-19.8 7.5 -55.3 21 -79 30 -23.6 8.9 -51.7 19.6 -62.4 23.6 -10.7 4.1 -20.2 7.4 -21 7.3 -0.9 0 -29.3 -10.6 -63.1 -23.5z"/>
  <path d="M221.5 433.9 c-20.3 -7.8 -59 -22.3 -85.9 -32.4 -26.8 -10.1 -49.1 -18.6 -49.4 -18.9 -0.4 -0.5 -2.9 -18.9 -3.1 -23.3 -0.1 -1 36 -1.3 177.4 -1.3 97.6 0 177.5 0.1 177.5 0.3 0 1.6 -3 24.1 -3.3 24.3 -0.3 0.4 -32.4 12.5 -116.1 44 -31.3 11.8 -57.7 21.4 -58.5 21.3 -0.9 0 -18.2 -6.3 -38.6 -14z m42.4 1.6 c4.7 -2.4 5.5 -7.4 1.9 -11.2 -5.7 -6.1 -15.8 1.4 -11.3 8.4 1.3 1.9 4 3.7 6.3 4.2 0.2 0.1 1.6 -0.6 3.1 -1.4z m-159.6 -56 c1 -0.7 2 -2.8 2.3 -4.6 1.2 -7.1 -8 -11 -12.5 -5.3 -2.5 3.2 -2.6 5.2 -0.5 8.2 2.8 4 6.8 4.6 10.7 1.7z m321.7 -0.5 c4.5 -4.5 1 -12 -5.6 -12 -3.5 0 -7.4 3.7 -7.4 7 0 1 0.9 2.9 2.1 4.4 2.6 3.3 7.9 3.6 10.9 0.6z"/>
  <path d="M29 349.5 c1.1 -1.3 28.1 -1.5 232 -1.5 203.9 0 230.9 0.2 232 1.5 1.1 1.3 -24.8 1.5 -232 1.5 -207.2 0 -233.1 -0.2 -232 -1.5z"/>
  <path d="M30 310.5 l24.5 -24.5 -23.7 -23.7 c-13.1 -13.1 -23.8 -23.8 -23.8 -24 0 -0.2 1.9 -0.3 4.2 -0.3 l4.3 0 47.6 48.3 47.6 48.2 -3.6 0.3 c-3.5 0.3 -4.3 -0.3 -17.6 -13.8 -7.6 -7.7 -14.4 -14 -15 -14 -0.6 0 -7.3 6.3 -15 14 l-14 14 -20 0 -20 0 24.5 -24.5z"/>
  <path d="M106.7 322.7 c-6.5 -6.7 -28.1 -28.5 -48 -48.4 l-36.2 -36.3 11.5 0 11.5 0 14.3 14.2 14.2 14.2 14.3 -14.2 14.4 -14.2 19.9 0 19.9 0 -23.8 23.8 c-13 13 -23.7 24.2 -23.7 24.8 0 0.6 10.6 11.4 23.5 24 12.9 12.5 23.5 23.2 23.5 23.6 0 0.4 -5.3 0.8 -11.7 0.8 l-11.8 0 -11.8 -12.3z"/>
  <path d="M205 286.5 l0 -48.5 14.3 0 14.2 0 0 48.5 0 48.5 -14.2 0 -14.3 0 0 -48.5z"/>
  <path d="M262 286.5 l0 -48.6 47.3 0.3 47.2 0.3 6.2 2.9 c22.8 10.5 31.6 45.2 18.2 71.8 -4.1 8.2 -12.2 16 -19.6 19 -5.8 2.3 -6.2 2.3 -52.5 2.6 l-46.8 0.3 0 -48.6z m87.5 26.6 c11.2 -5 17.4 -20.2 14.1 -34.4 -2.9 -12.2 -9.1 -18.7 -19.7 -20.7 -3.1 -0.6 -16.8 -0.9 -31.5 -0.8 l-25.9 0.3 -0.3 28.8 -0.2 28.7 29.7 0 c26.7 0 30.2 -0.2 33.8 -1.9z"/>
  <path d="M410 286.5 l0 -48.5 51.5 0 51.5 0 0 9.8 0 9.7 -39 -0.3 -39 -0.2 0 9 0 9 23 0 23 0 0 10.5 0 10.5 -23 0 -23 0 0 9 0 9 39 0 39 0 0 10.5 0 10.5 -51.5 0 -51.5 0 0 -48.5z"/>
  <path d="M12 223.5 c-1.1 -1.3 26.7 -1.5 249 -1.5 222.3 0 250.1 0.2 249 1.5 -1.1 1.3 -30 1.5 -249 1.5 -219 0 -247.9 -0.2 -249 -1.5z"/>
  <path d="M24.8 209 c11.9 -5.8 14.2 -7.2 14.2 -9.1 0 -1.2 -0.9 -9.9 -2 -19.3 -7.7 -67.1 -11 -95.9 -11 -97.5 0 -1.6 5.5 -3.7 35.3 -13.5 19.3 -6.4 71.9 -23.8 116.7 -38.6 44.8 -14.9 81.9 -27 82.4 -27 1.2 0 233.6 76.9 234.4 77.6 0.2 0.1 -0.3 6.7 -1.2 14.6 -1.6 13.3 -6.2 53.3 -8.6 74.3 -0.5 5 -1.4 12.8 -2 17.5 -1.7 14.7 -2.9 12.8 13.3 20.6 l14.2 6.9 -23.9 0.3 c-13.1 0.1 -24 0.1 -24.2 0 -0.1 -0.2 2.9 -28.1 6.7 -62.2 3.9 -34 6.8 -62 6.5 -62.3 -0.3 -0.3 -17.7 -6.1 -38.8 -12.8 -21.1 -6.8 -62.4 -20 -91.8 -29.5 -93.3 -29.9 -83.8 -27.2 -89 -25.6 -18.2 5.8 -166.4 53.4 -186.2 59.8 -28.2 9 -25.5 6.8 -23.8 20.4 0.6 4.3 3.5 30.2 6.5 57.4 3 27.2 5.7 50.7 6 52.3 l0.5 2.7 -24.3 -0.1 -24.2 0 14.3 -6.9z"/>
  <path d="M66.6 212.3 c-2.4 -15.3 -12.7 -114.6 -12 -115.3 0.5 -0.4 26.5 -9 57.9 -19 31.4 -10 65.1 -20.8 75 -24 9.9 -3.2 30.3 -9.8 45.4 -14.6 l27.3 -8.7 33.7 10.7 c18.5 5.9 46.2 14.8 61.6 19.7 15.4 5 32.7 10.5 38.5 12.4 5.8 1.8 23.1 7.4 38.5 12.4 15.4 4.9 29.3 9.3 30.8 9.7 1.6 0.4 3.1 1.2 3.3 1.9 0.3 0.6 -2.5 27.3 -6.1 59.4 -3.6 32 -6.5 58.4 -6.5 58.6 0 0.3 -87 0.5 -193.4 0.5 l-193.4 0 -0.6 -3.7z m35.6 -43 l0.3 -26.8 5.3 23 c3 12.7 5.8 24.7 6.3 26.8 l1 3.7 11.4 0 c10 0 11.4 -0.2 11.9 -1.7 0.2 -1 2.8 -12.2 5.7 -25 2.9 -12.8 5.6 -23 6.1 -22.7 0.5 0.3 0.8 11.4 0.8 24.7 l-0.1 24.2 9 0.3 9 0.3 0.3 -41.8 c0.2 -23 0.1 -42.4 -0.1 -43.1 -0.2 -1 -3.4 -1.2 -13 -1 l-12.6 0.3 -8.4 34 -8.5 34 -1.3 -4.5 c-0.7 -2.5 -4.6 -17.8 -8.6 -34 l-7.2 -29.5 -13 0 -13 0 -0.3 42.8 -0.2 42.7 9.5 0 9.5 0 0.2 -26.7z m98.8 11.8 l0 -14.8 8.9 -0.6 c10.1 -0.6 16.4 -3.1 21.5 -8.3 4.6 -4.7 5.6 -9.2 5.6 -24.8 l0 -13.6 -3.2 -3.6 c-4.5 -4.8 -7.7 -5.3 -31.5 -5.4 l-20.3 0 0 43 0 43 9.5 0 9.5 0 0 -14.9z m90 6.9 l0 -8 -12.5 0 -12.5 0 -0.2 -34.7 -0.3 -34.8 -9.2 -0.3 -9.3 -0.3 0 43.1 0 43 22 0 22 0 0 -8z m30.3 -0.7 l1.9 -8.3 7.7 0 7.8 0 1.1 5.3 c0.6 2.8 1.4 6.7 1.7 8.5 l0.7 3.2 9.4 0 c7 0 9.4 -0.3 9.4 -1.3 0 -0.7 -3.4 -17.2 -7.6 -36.7 -4.1 -19.5 -8.1 -38.2 -8.7 -41.5 l-1.3 -6 -12.4 0 -12.5 0 -6.2 29 c-3.4 16 -7.5 35.2 -9.1 42.8 l-3 13.8 9.6 -0.3 9.6 -0.3 1.9 -8.2z m86.3 7.2 c2.7 -0.8 6.6 -2.9 8.8 -4.7 5.5 -4.5 7.6 -9.7 7.6 -19.1 0 -8.4 -1.1 -11.6 -5.3 -15.5 l-2.5 -2.4 2.3 -3.5 c3 -4.3 3.8 -9.5 3.3 -21.8 -0.3 -9.4 -0.4 -9.7 -3.5 -12.5 -4.8 -4.3 -9 -5 -30 -5 l-19.3 0 0 43 0 43 16.8 0 c11.9 0 18.3 -0.4 21.8 -1.5z m31.6 -71.2 c2.9 -2.6 2.4 -8.7 -0.8 -11.2 -5.2 -4.1 -11.8 -1.7 -13 4.6 -0.5 2.7 -0.1 3.7 2.5 6.4 2.7 2.6 3.7 3 6.3 2.5 1.8 -0.3 4 -1.4 5 -2.3z m-173.3 -68.9 c4.2 -5.3 1.3 -11.4 -5.3 -11.4 -3.7 0 -7.6 3.6 -7.6 7 0 3.4 3.9 7 7.5 7 2.4 0 3.9 -0.7 5.4 -2.6z"/>
  <path d="M201 138.5 l0 -11.5 8.5 0 8.5 0 0 9.3 c0 5 -0.4 9.8 -0.8 10.5 -1.1 1.7 -6.7 3.2 -11.9 3.2 l-4.3 0 0 -11.5z"/>
  <path d="M327.1 159.3 c0.1 -6.5 3.5 -27.9 4.2 -26.3 0.5 1.3 3.7 26.1 3.7 29 0 0.5 -1.8 1 -4 1 -4 0 -4 0 -3.9 -3.7z"/>
  <path d="M388 170.5 l0 -9.5 5.6 0 c5.4 0 9.2 1.2 10.6 3.4 0.4 0.6 0.8 3.7 0.8 6.8 0 7.3 -1.8 8.8 -10.7 8.8 l-6.3 0 0 -9.5z"/>
  <path d="M388 136 l0 -9 7.5 0 7.5 0 0 6.8 c0 9.5 -1.4 11.2 -9.1 11.2 l-5.9 0 0 -9z"/>
  <path d="M430.2 122.4 c-2.3 -1.6 -3.1 -6.7 -1.2 -7.9 0.6 -0.4 1 1 1 3.4 0 2.3 0.5 4.1 1 4.1 0.6 0 1 -0.7 1 -1.7 0 -1.4 0.2 -1.4 2 0.2 1.6 1.4 1.7 2 0.8 2.7 -1.8 1.1 -2 1 -4.6 -0.8z"/>
  <path d="M436.1 120.1 c-0.8 -1.4 -0.8 -2.1 -0.1 -2.1 0.5 0 1 -0.9 1 -2 0 -1.3 -1 -2.2 -3.2 -2.9 -3 -0.8 -3.1 -0.9 -0.7 -1 4.5 -0.2 7.4 5 5 8.8 -0.7 1.1 -1.1 0.9 -2 -0.8z"/>
  <path d="M432 116 c0 -0.5 0.7 -1 1.5 -1 0.8 0 1.5 0.5 1.5 1 0 0.6 -0.7 1 -1.5 1 -0.8 0 -1.5 -0.4 -1.5 -1z"/>
 </g>
</svg>